<svg version="1.1" id="Layer_1" xmlns="http://www.w3.org/2000/svg" xmlns:xlink="http://www.w3.org/1999/xlink" x="0px" y="0px"
	 width="100%" viewBox="0 0 1024 1008" enable-background="new 0 0 1024 1008" xml:space="preserve">
<path fill="#000000" opacity="1.000000" stroke="none" 
	d="
M431.424500,658.739197 
	C440.715088,691.125366 441.294678,723.136108 431.019379,754.964050 
	C422.256348,782.107544 404.512482,801.956299 379.778046,815.708374 
	C356.528595,828.634766 331.178375,834.499512 305.001709,837.306946 
	C271.607147,840.888550 238.088821,838.584290 204.630447,839.170898 
	C197.238693,839.300476 197.210938,839.190308 197.211441,846.622681 
	C197.213898,883.447815 197.235794,920.273010 197.239151,957.098145 
	C197.239807,964.302429 197.215958,964.315186 190.076736,964.315552 
	C146.753006,964.317627 103.429260,964.316650 60.105526,964.307800 
	C53.392876,964.306396 53.078014,963.758057 53.151798,957.343140 
	C53.280071,946.190796 53.085342,935.035156 53.085602,923.880859 
	C53.088123,814.571777 53.103065,705.262695 53.114082,595.953613 
	C53.114704,589.794556 53.065056,583.635071 53.122417,577.476562 
	C53.194965,569.687866 53.231968,569.675781 60.844448,569.675415 
	C119.164864,569.672485 177.485413,569.603577 235.805618,569.714294 
	C255.953217,569.752563 276.124786,568.874756 296.243774,570.694885 
	C329.925323,573.741943 362.544739,580.239136 390.731445,600.590454 
	C410.891663,615.146423 424.311310,634.516846 431.424500,658.739197 
M248.442856,670.133545 
	C233.111313,670.120728 217.779526,670.148132 202.448395,670.063232 
	C199.141113,670.044922 197.121857,670.695740 197.146545,674.704285 
	C197.276917,695.867737 197.254944,717.032471 197.194122,738.196472 
	C197.184967,741.380920 198.373871,742.726257 201.607376,742.647766 
	C221.244354,742.170654 240.960266,744.059937 260.513641,741.552429 
	C279.447876,739.124268 293.254578,730.928162 294.346893,709.593201 
	C295.258026,691.796936 290.157013,678.477966 269.693512,672.627869 
	C263.093994,670.741272 256.273956,670.199768 248.442856,670.133545 
z"/>
<path fill="#000000" opacity="1.000000" stroke="none" 
	d="
M150.187805,316.800171 
	C156.643204,319.576385 162.717728,322.316681 168.917786,324.735107 
	C171.892700,325.895508 172.665619,327.325500 171.473221,330.376862 
	C168.200729,338.751129 165.010391,347.166199 162.127090,355.680145 
	C160.679810,359.953674 158.552475,360.381287 154.647675,358.818939 
	C100.691292,337.230988 67.903450,297.921112 56.749626,240.994171 
	C49.425339,203.612488 51.805328,166.676178 66.027046,131.112457 
	C83.654892,87.031212 115.969513,57.543961 159.502197,39.833740 
	C188.223862,28.149031 218.271179,23.329126 249.164230,22.610794 
	C280.736664,21.876667 311.682861,25.424622 341.641144,35.565895 
	C383.053680,49.584606 416.383667,74.065697 438.134796,112.672798 
	C449.547394,132.929459 456.157135,154.806534 458.492157,178.016632 
	C461.439270,207.311035 460.015747,236.260666 451.378662,264.496490 
	C439.298828,303.987061 414.241425,332.380127 376.611420,349.512360 
	C372.417358,351.421875 367.979736,355.479767 363.778625,354.054047 
	C359.505432,352.603790 359.251434,346.403656 357.124573,342.354309 
	C354.262207,336.904602 351.970337,331.156982 349.157562,325.678955 
	C347.237762,321.940002 348.063202,320.114777 352.070923,318.754272 
	C364.476807,314.542725 375.801239,308.213043 386.169312,300.220642 
	C405.567108,285.267517 417.727509,265.488281 423.099915,241.858643 
	C429.053864,215.671310 429.161987,189.193268 421.925385,163.234573 
	C408.374908,114.626984 375.281464,85.038979 328.411560,69.436539 
	C297.209290,59.049664 265.112518,57.720970 232.639786,59.981037 
	C208.635162,61.651733 185.455200,66.829811 163.734146,77.188484 
	C119.521988,98.273079 93.163490,132.770111 87.212395,181.875946 
	C84.544304,203.891891 85.329453,225.812271 91.970360,247.158188 
	C101.646553,278.260468 120.963882,301.471954 150.187805,316.800171 
z"/>
<path fill="#000000" opacity="1.000000" stroke="none" 
	d="
M949.390747,674.473267 
	C943.630981,677.125122 938.212402,679.612305 932.726929,682.130249 
	C929.495972,678.458435 928.768982,674.037170 927.076416,670.142639 
	C910.184570,631.276245 880.644165,609.455627 838.738647,604.187805 
	C807.329285,600.239319 776.873474,603.194519 748.233093,617.634827 
	C717.619080,633.070190 697.348328,657.934387 684.535522,689.204712 
	C675.814148,710.489746 671.778809,732.824707 670.082092,755.739563 
	C667.867554,785.647461 670.546570,815.055481 679.512573,843.561646 
	C694.729614,891.941772 724.758057,926.587097 775.517273,938.785645 
	C814.341370,948.115906 852.417236,945.215210 887.369690,923.703674 
	C910.724915,909.329651 925.731812,888.054321 934.976074,862.587158 
	C936.711548,857.806091 938.412170,856.392395 943.400452,858.569214 
	C951.173157,861.961121 959.247498,864.680237 967.261658,867.491638 
	C970.626770,868.672119 971.531555,870.177368 970.142761,873.749878 
	C948.963318,928.231934 909.456604,960.993591 852.396606,972.306458 
	C810.397522,980.633240 769.385925,976.848633 730.598267,957.983276 
	C688.394348,937.456421 662.083862,902.962158 646.785767,859.352173 
	C634.094299,823.172974 631.901367,785.862854 634.482483,747.954163 
	C636.392456,719.902161 642.566772,692.958435 654.538574,667.522888 
	C679.375244,614.754211 720.428040,582.677856 778.054626,572.772217 
	C815.333923,566.364075 852.139282,568.883301 887.610962,582.645874 
	C925.830383,597.474426 950.543030,625.694519 965.299561,663.332642 
	C966.249878,665.756409 965.562683,667.062744 963.355286,668.052246 
	C958.795532,670.096069 954.271057,672.218506 949.390747,674.473267 
z"/>
</svg>